<?xml version="1.0" encoding="UTF-8"?>
<svg id="uuid-8cbf0f3c-4aa4-4fd4-bd44-3c830956ec85" data-name="Layer 2" xmlns="http://www.w3.org/2000/svg" width="400.4" height="445.1" viewBox="0 0 400.4 445.1">
  <defs>
    <style>
      .uuid-2158780c-48b8-43c1-ad5a-19a3eba7b80a {
        fill: #fff;
        fill-rule: evenodd;
      }
    </style>
  </defs>
  <g id="uuid-68328971-a1a7-45f1-90a1-a1265db92903" data-name="Layer 1">
    <g>
      <path class="uuid-2158780c-48b8-43c1-ad5a-19a3eba7b80a" d="M19.2,369.7c-1.3-2.1-2.4-4.5-2.4-7.4v-45.1c13.8,0,17.1,0,30.5,3.9l4.8-9.4H16.8v-42c12.9,0,24.1,1,41.4,4.6l6.5-10.1H0c1.3,2.1,2.2,4.3,2.2,7.1v91.2c0,2.7-.9,5.2-2.2,7.1H19.2Zm68.2-54.2c0-34.1,17.1-49,37.2-49s36,26.5,36,51.6-17.7,48.7-37.5,48.7-35.7-26.6-35.7-51.3m-16.7,1.3c0,35.3,26.5,55.1,53,55.1s53-19.8,53-55.1-26.5-54.9-53-54.9-53,19.6-53,54.9m137.1,52.8c-1.3-2.1-2.4-4.2-2.4-7.4v-92.6h19.5c8.9,0,22.9,3,22.9,22.9s-16.7,24-25.9,24h-11.5l38.8,48.5c2.2,2.8,6.1,4.6,9.7,4.6h11.9l-39.7-50.5c18.3-2.4,31.7-9.5,31.7-25.9s-18.3-29.2-35.3-29.2h-39c1.3,2.1,2.2,4,2.2,7.1v91.2c0,3-.9,5.2-2.2,7.1h19.2Zm83.3,0c-2.1-2.5-4.3-5.5-4.3-10v-1.2l5.4-71.7,38.5,68.6c1.9,3.4,5.4,7.3,8.6,9.5l.4,.3,37.7-83.9,6.1,81v.9c0,2.5-1,4.5-2.4,6.5h19.2c-1.3-2.1-2.1-4.2-2.4-7.4l-7.4-98.1h-4.8c-3.7,0-7.3,2.2-8.8,5.7l-35.1,76.9-43.2-77.7c-1.6-3-4.9-4.9-8.2-4.9h-11l7,12.4-6.7,82.3c-.4,5.1-2.1,8.3-4.2,10.9h15.5Z"/>
      <path class="uuid-2158780c-48b8-43c1-ad5a-19a3eba7b80a" d="M124.9,444.3c-.4-.7-.8-1.5-.8-2.5v-17.1h19.7v17c0,1-.3,1.9-.8,2.6h7.1c-.4-.7-.8-1.5-.8-2.5v-34.1c0-.9,.3-1.8,.8-2.5h-7.1c.5,.8,.8,1.6,.8,2.6v14.8h-19.7v-14.9c0-.9,.3-1.8,.8-2.5h-7.1c.5,.8,.8,1.6,.8,2.6v33.8c0,1-.3,1.9-.8,2.6h7.1Zm35.8-20.1c0-12.6,6.3-18.1,13.8-18.1s13.3,9.8,13.3,19.1-6.6,18-13.9,18-13.2-9.9-13.2-19m-6.2,.5c0,13.1,9.8,20.4,19.6,20.4s19.6-7.3,19.6-20.4-9.8-20.3-19.6-20.3-19.6,7.3-19.6,20.3m71.6-19.5h-31.5l2.2,3.7c4.8-1.3,7.2-1.7,10.9-1.7v34.3c0,1.1-.4,2-.9,2.8h7.1c-.5-.8-.8-1.6-.8-2.6v-34.4c3.6,0,6.1,.3,10.9,1.7l2.2-3.7Zm24,35.3c-6.1,1.7-10.5,1.7-15.2,1.7,0-.3-.1-.7-.1-1v-18.4c3.8,0,4.7,0,9.6,1.4l1.8-3.5h-11.4v-13.6c3.8,0,6.5,0,12.6,1.7l2.4-3.7h-21.2c.5,.8,.8,1.6,.8,2.6v33.8c0,.9-.3,1.9-.8,2.6h24l-2.4-3.7Zm30.5-.1c-4.7,1.7-7.6,1.8-11.4,1.8h-5.5v-34.3c0-1.2,.4-2,.9-2.8h-7.1c.5,.8,.8,1.5,.8,2.6v33.8c0,1.1-.3,1.9-.8,2.6h25l-1.9-3.9Z"/>
      <path class="uuid-2158780c-48b8-43c1-ad5a-19a3eba7b80a" d="M263.2,0c2.6,4.1,4.7,8.8,4.7,14.7V103.7c-27.2,0-33.7,0-60.1-7.6l-9.4,18.5h69.4v82.8c-25.5,0-47.5-2.1-81.5-9.1l-12.9,20h127.5c-2.6-4.1-4.4-8.5-4.4-14.1V14.1c0-5.3,1.8-10.3,4.4-14.1h-37.8Z"/>
      <path class="uuid-2158780c-48b8-43c1-ad5a-19a3eba7b80a" d="M136.7,208.2c-2.6-4.1-4.7-8.8-4.7-14.7V104.5c27.3,0,33.8,0,60.2,7.6l9.4-18.5h-69.6V10.9c25.5,0,47.6,2.1,81.6,9.1L226.6,0H98.8c2.6,4.1,4.4,8.5,4.4,14.1V194.1c0,5.3-1.8,10.3-4.4,14.1h37.9Z"/>
    </g>
  </g>
</svg>